<svg width="24" height="24" viewBox="0 0 24 24" fill="none" xmlns="http://www.w3.org/2000/svg">
<rect x="0.5" y="0.5" width="23" height="23" rx="3.5" stroke="#D2D4D8"/>
<path d="M10.2322 11.6462L8.81801 13.0604C8.23223 13.6462 8.23223 14.596 8.81801 15.1818C9.4038 15.7675 10.3535 15.7675 10.9393 15.1818L12.3535 13.7675L13.0607 14.4746L11.6464 15.8889C10.6701 16.8652 9.08722 16.8652 8.11091 15.8889C7.1346 14.9125 7.1346 13.3296 8.11091 12.3533L9.52512 10.9391L10.2322 11.6462ZM12.3535 8.11069C13.3299 7.13438 14.9128 7.13438 15.8891 8.11069C16.8654 9.087 16.8654 10.6699 15.8891 11.6462L14.4749 13.0604L13.7678 12.3533L15.182 10.9391C15.7678 10.3533 15.7678 9.40358 15.182 8.81779C14.5962 8.23201 13.6464 8.23201 13.0607 8.81779L11.6464 10.232L10.9393 9.5249L12.3535 8.11069ZM14.1213 10.5856L10.5858 14.1211L9.87867 13.414L13.4142 9.87845L14.1213 10.5856Z" fill="#2E2E54"/>
</svg>
