<svg width="14" height="14" viewBox="0 0 14 14" fill="none" xmlns="http://www.w3.org/2000/svg">
<path d="M7 0.333496C10.6817 0.333672 13.667 3.3187 13.667 7.00049C13.6669 8.14991 13.3747 9.2583 12.8281 10.2397L13.0635 13.064L10.2393 12.8286C9.25781 13.3752 8.14942 13.6674 7 13.6675C3.31821 13.6675 0.333184 10.6822 0.333008 7.00049C0.333008 3.31859 3.3181 0.333496 7 0.333496ZM7 1.66748C4.05448 1.66748 1.66699 4.05497 1.66699 7.00049C1.66717 9.94586 4.05459 12.3335 7 12.3335C7.98078 12.3334 8.92162 12.0695 9.74316 11.5757L9.92773 11.4644L11.6035 11.604L11.4639 9.92822L11.5752 9.74365C12.069 8.92211 12.3329 7.98127 12.333 7.00049C12.333 4.05508 9.94537 1.66766 7 1.66748ZM7 8.99951C7.3682 8.99957 7.66688 9.29747 7.66699 9.66553C7.66699 10.0337 7.36826 10.3325 7 10.3325C6.63169 10.3325 6.33301 10.0337 6.33301 9.66553C6.33312 9.29743 6.63176 8.99951 7 8.99951ZM7 3.6665C8.10431 3.66668 8.99982 4.56219 9 5.6665C9 6.35955 8.64349 6.99294 8.06934 7.35693C7.9008 7.46378 7.88023 7.47781 7.81348 7.53076C7.70405 7.61758 7.66602 7.67212 7.66602 7.6665V8.3335H6.33301V7.6665C6.33312 7.17518 6.58804 6.8003 6.98438 6.48584C7.10361 6.39125 7.13982 6.36767 7.35547 6.23096C7.54785 6.109 7.66602 5.89805 7.66602 5.6665C7.66584 5.29857 7.36793 5.00066 7 5.00049C6.63192 5.00049 6.33318 5.29846 6.33301 5.6665H5C5.00018 4.56208 5.89554 3.6665 7 3.6665Z" fill="#D13980"/>
</svg>
