<svg width="14" height="14" viewBox="0 0 14 14" fill="none" xmlns="http://www.w3.org/2000/svg">
<path d="M4.64323 6.52855L2.75738 8.4144C1.97664 9.19539 1.97664 10.4618 2.75738 11.2428C3.53835 12.0238 4.80474 12.0236 5.58581 11.2428L7.47165 9.35698L8.41492 10.3002L6.52908 12.1861C5.22731 13.4876 3.11647 13.4871 1.8148 12.1854C0.513359 10.8837 0.513359 8.77351 1.8148 7.47182L3.70065 5.58597L4.64323 6.52855ZM7.47165 1.81497C8.77333 0.513295 10.8842 0.512758 12.1859 1.81428C13.4877 3.11602 13.4877 5.22749 12.1859 6.52924L10.3008 8.4144L9.3575 7.47113L11.2427 5.58597C12.0237 4.80492 12.0237 3.53859 11.2427 2.75754C10.4616 1.97673 9.1952 1.97657 8.41423 2.75754L6.52908 4.6427L5.5865 3.70012L7.47165 1.81497ZM9.82914 5.11434L5.11486 9.82861L4.17228 8.88603L8.88656 4.17176L9.82914 5.11434Z" fill="#2E2E54"/>
</svg>
