<svg width="17" height="18" viewBox="0 0 17 18" fill="none" xmlns="http://www.w3.org/2000/svg">
<g clip-path="url(#clip0_1002_2)">
<path fill-rule="evenodd" clip-rule="evenodd" d="M2.99967 17.5363L7.05754 15.0002H12.333C13.0694 15.0002 13.6663 14.4032 13.6663 13.6668V5.66683C13.6663 4.93045 13.0694 4.3335 12.333 4.3335H1.66634C0.929961 4.3335 0.333008 4.93045 0.333008 5.66683V13.6668C0.333008 14.4032 0.929961 15.0002 1.66634 15.0002H2.99967V17.5363ZM6.67514 13.6668L4.33301 15.1307V13.6668H1.66634V5.66683H12.333V13.6668H6.67514ZM3.66634 11.6668V10.3335H8.33301V11.6668H3.66634ZM3.66634 7.66683V9.00016H9.66634V7.66683H3.66634Z" fill="#2E2E54"/>
<path d="M13 7.5C14.933 7.5 16.5 5.933 16.5 4C16.5 2.067 14.933 0.5 13 0.5C11.067 0.5 9.5 2.067 9.5 4C9.5 5.933 11.067 7.5 13 7.5Z" fill="#D13980" stroke="white"/>
</g>
<defs>
<clipPath id="clip0_1002_2">
<rect width="17" height="18" fill="white"/>
</clipPath>
</defs>
</svg>
