<svg width="12" height="4" viewBox="0 0 12 4" fill="none" xmlns="http://www.w3.org/2000/svg">
<path d="M1.33301 0.666504C2.06928 0.666504 2.66682 1.26328 2.66699 1.99951C2.66699 2.73589 2.06939 3.3335 1.33301 3.3335C0.596778 3.33332 0 2.73578 0 1.99951C0.000175825 1.26339 0.596886 0.66668 1.33301 0.666504ZM6 0.666504C6.73627 0.666504 7.33283 1.26328 7.33301 1.99951C7.33301 2.73589 6.73638 3.3335 6 3.3335C5.26362 3.3335 4.66699 2.73589 4.66699 1.99951C4.66717 1.26328 5.26373 0.666504 6 0.666504ZM10.667 0.666504C11.4031 0.66668 11.9998 1.26339 12 1.99951C12 2.73578 11.4032 3.33332 10.667 3.3335C9.93061 3.3335 9.33301 2.73589 9.33301 1.99951C9.33318 1.26328 9.93072 0.666504 10.667 0.666504Z" fill="#D2D4D8"/>
</svg>
